<?xml version="1.0" encoding="UTF-8" standalone="no"?><!DOCTYPE svg PUBLIC "-//W3C//DTD SVG 1.1//EN" "http://www.w3.org/Graphics/SVG/1.1/DTD/svg11.dtd"><svg width="100%" height="100%" viewBox="0 0 916 916" version="1.1" xmlns="http://www.w3.org/2000/svg" xmlns:xlink="http://www.w3.org/1999/xlink" xml:space="preserve" xmlns:serif="http://www.serif.com/" style="fill-rule:evenodd;clip-rule:evenodd;stroke-linecap:round;stroke-linejoin:round;stroke-miterlimit:1.5;"><path d="M844.194,386.482c18.892,18.891 29.505,44.514 29.505,71.231c0,26.717 -10.613,52.339 -29.505,71.231c-85.884,85.884 -229.366,229.366 -315.25,315.25c-18.892,18.892 -44.514,29.505 -71.231,29.505c-26.717,0 -52.34,-10.613 -71.231,-29.505c-85.885,-85.884 -229.366,-229.366 -315.251,-315.25c-18.892,-18.892 -29.505,-44.514 -29.505,-71.231c0,-26.717 10.613,-52.34 29.505,-71.231c85.885,-85.885 229.366,-229.366 315.251,-315.251c18.891,-18.892 44.514,-29.505 71.231,-29.505c26.717,0 52.339,10.613 71.231,29.505c85.884,85.885 229.366,229.366 315.25,315.251Z" style="fill:#fff;fill-opacity:0;"/><path d="M844.194,386.482c18.892,18.891 29.505,44.514 29.505,71.231c0,26.717 -10.613,52.339 -29.505,71.231l-315.25,315.25c-18.892,18.892 -44.514,29.505 -71.231,29.505c-26.717,0 -52.34,-10.613 -71.231,-29.505l-315.251,-315.25c-18.892,-18.892 -29.505,-44.514 -29.505,-71.231c0,-26.717 10.613,-52.34 29.505,-71.231l315.251,-315.251c18.891,-18.892 44.514,-29.505 71.231,-29.505c26.717,0 52.339,10.613 71.231,29.505l315.25,315.251Zm-35.355,35.355l-315.25,-315.25c-9.515,-9.515 -22.42,-14.861 -35.876,-14.861c-13.456,0 -26.361,5.346 -35.876,14.861l-315.25,315.25c-9.515,9.515 -14.861,22.42 -14.861,35.876c0,13.456 5.346,26.361 14.861,35.876l315.25,315.25c9.515,9.515 22.42,14.86 35.876,14.86c13.456,0 26.361,-5.345 35.876,-14.86l315.25,-315.25c9.515,-9.515 14.86,-22.42 14.86,-35.876c0,-13.456 -5.345,-26.361 -14.86,-35.876Z"/><g><g><path d="M457.713,294.79l-0,325.845" style="fill:none;stroke:#000;stroke-width:50px;"/><path d="M294.79,457.713l325.845,-0" style="fill:none;stroke:#000;stroke-width:50px;"/></g></g></svg>